<svg xmlns="http://www.w3.org/2000/svg" width="1280" height="1280" preserveAspectRatio="none" style="display:block" viewBox="0 0 2048 2048">

    <g>
        <path
            d="M1016.42 126.245c43.32-3.774 62.9 26.685 88.87 55.818a3066 3066 0 0 1 99.19 117.585 3063.24 3063.24 0 0 1 597.69 1240.732c-11.71 3.41-30.55 6.75-42.87 9.21-29.01 5.73-58.09 11.13-87.22 16.19a3765 3765 0 0 1-431.66 49.6c-5.17 9.42-9.97 19.65-14.79 29.29-53.55 107.05-107.12 214.11-160.57 321.21-8.25 16.54-14.76 23.13-32.56 28.82-41.353 3.81-49.062-27.4-64.387-58.26l-34.869-69.92-125.771-251.29a3757 3757 0 0 1-425.483-48.55 3297 3297 0 0 1-136.194-26.18 3063.3 3063.3 0 0 1 494.42-1104.111 3073 3073 0 0 1 190.063-240.058c6.219-7.105 12.419-14.337 18.799-21.297 22.445-24.483 32.714-42.999 67.342-48.789M456.617 1406.11a3821 3821 0 0 0 219.81 27.86 5648 5648 0 0 0 239.378 16.36c11.81 22.9 103.085 210.15 108.735 215.17l68.38-137.06c12.58-25.16 26.01-53.62 39.18-78.22a4569 4569 0 0 0 301.44-22.76c32.85-3.73 65.63-7.93 98.36-12.58 18.94-2.71 40.77-6.48 59.51-8.61a2895.4 2895.4 0 0 0-473.9-940.419c-11.2-14.773-86.36-112.03-94.05-116.161a2893 2893 0 0 0-566.843 1056.42"
            stroke="#000" 
            stroke-width="1.5" 
            stroke-linecap="round" 
            stroke-linejoin="round"
            fill="#000"
        />
        <circle cx="50%" cy="50%" r="200" stroke="#00ffff" stroke-width="150" fill="none"/>
    </g>

</svg>